<svg width="20" height="20" viewBox="0 0 20 20" fill="none" xmlns="http://www.w3.org/2000/svg">
<g id="mingcute:bread-line" clip-path="url(#clip0_31_17974)">
<g id="Group">
<path id="Vector" fill-rule="evenodd" clip-rule="evenodd" d="M16.5341 3.56801C17.1925 4.22717 17.5175 4.99384 17.5008 5.83467C17.4866 6.63551 17.1633 7.41301 16.7191 8.13801C16.1275 9.10634 15.2233 10.128 14.2125 11.1755L13.6525 11.7497L13.0775 12.328L12.0191 13.3847L11.4025 13.993C10.2758 15.0905 9.17746 16.0822 8.13996 16.7172C7.41496 17.1613 6.63746 17.4838 5.83663 17.4997C4.99579 17.5163 4.22913 17.1913 3.56996 16.5322C2.58079 15.543 2.15663 13.7455 2.40579 11.828C2.64996 9.94801 3.54829 7.82551 5.37663 5.89467L5.64579 5.61801C7.64329 3.62634 9.86829 2.65884 11.8291 2.40384C13.7466 2.15467 15.545 2.57884 16.5341 3.56801ZM15.3558 4.74717C14.8716 4.26301 13.6825 3.84384 12.0441 4.05634C11.6858 4.10301 11.3116 4.17967 10.9275 4.29051C11.1441 4.54051 11.4275 4.71967 11.7891 4.84051C11.8943 4.87405 11.9917 4.92814 12.0758 4.99965C12.1598 5.07115 12.2289 5.15865 12.2788 5.25705C12.3288 5.35544 12.3588 5.46279 12.3669 5.57285C12.3751 5.68292 12.3613 5.7935 12.3263 5.89819C12.2914 6.00288 12.236 6.09959 12.1634 6.1827C12.0908 6.26581 12.0024 6.33367 11.9033 6.38234C11.8043 6.43101 11.6966 6.45952 11.5864 6.46622C11.4762 6.47291 11.3658 6.45766 11.2616 6.42134C10.42 6.14134 9.77163 5.63634 9.33829 4.93051C8.58059 5.32958 7.87663 5.82325 7.24329 6.39967C7.37579 6.59717 7.55329 6.81634 7.76829 7.03134C8.12163 7.38384 8.48329 7.63634 8.74829 7.75051L8.84246 7.78717C9.0522 7.85701 9.22561 8.00731 9.32453 8.20501C9.42346 8.4027 9.4398 8.6316 9.36996 8.84134C9.30012 9.05108 9.14982 9.22449 8.95212 9.32341C8.75443 9.42234 8.52553 9.43868 8.31579 9.36884C7.70079 9.16384 7.07746 8.69634 6.59079 8.20967C6.40586 8.0252 6.23274 7.82926 6.07246 7.62301C5.54219 8.26277 5.0958 8.96764 4.74413 9.72051C4.96996 10.2238 5.34079 10.5488 5.89663 10.7338C6.10352 10.8059 6.27371 10.9566 6.37033 11.1533C6.46695 11.3499 6.48224 11.5767 6.41289 11.7845C6.34354 11.9924 6.19512 12.1645 5.99978 12.2638C5.80443 12.363 5.57786 12.3813 5.36913 12.3147C4.91365 12.1676 4.49129 11.9329 4.12579 11.6238C4.09913 11.7655 4.07579 11.9055 4.05913 12.043C3.84579 13.6822 4.26496 14.8705 4.74913 15.3547C5.12079 15.7263 5.46246 15.8405 5.80496 15.8338C6.18663 15.8263 6.66579 15.6663 7.26996 15.2963C8.06329 14.8113 8.92663 14.0588 9.88079 13.1463L10.41 12.6322L11.2391 11.8097L12.3658 10.6805L12.8941 10.1422C13.9216 9.08384 14.7683 8.13384 15.2975 7.26884C15.6675 6.66467 15.8275 6.18551 15.835 5.80384C15.8416 5.46217 15.7275 5.11967 15.3558 4.74717Z" fill="#FAA61A"/>
</g>
</g>
<defs>
<clipPath id="clip0_31_17974">
<rect width="20" height="20" fill="white"/>
</clipPath>
</defs>
</svg>
