<svg xmlns="http://www.w3.org/2000/svg" width="52" height="52" viewBox="0 0 52 52" fill="none">
    <path d="M2.16699 27.0827V37.916C2.16699 38.4907 2.39527 39.0418 2.80159 39.4481C3.20792 39.8544 3.75902 40.0827 4.33366 40.0827H6.50033C6.50033 41.8066 7.18514 43.4599 8.40413 44.6789C9.62312 45.8979 11.2764 46.5827 13.0003 46.5827C14.7242 46.5827 16.3775 45.8979 17.5965 44.6789C18.8155 43.4599 19.5003 41.8066 19.5003 40.0827H32.5003C32.5003 41.8066 33.1851 43.4599 34.4041 44.6789C35.6231 45.8979 37.2764 46.5827 39.0003 46.5827C40.7242 46.5827 42.3775 45.8979 43.5965 44.6789C44.8155 43.4599 45.5003 41.8066 45.5003 40.0827H47.667C48.2416 40.0827 48.7927 39.8544 49.1991 39.4481C49.6054 39.0418 49.8337 38.4907 49.8337 37.916V11.916C49.8337 10.1921 49.1488 8.53881 47.9299 7.31982C46.7109 6.10084 45.0576 5.41602 43.3337 5.41602H23.8337C22.1098 5.41602 20.4564 6.10084 19.2375 7.31982C18.0185 8.53881 17.3337 10.1921 17.3337 11.916V16.2493H13.0003C11.9912 16.2493 10.996 16.4843 10.0934 16.9356C9.19088 17.3869 8.40578 18.0421 7.80032 18.8493L2.60033 25.7827C2.53695 25.8769 2.48598 25.9788 2.44866 26.086L2.31866 26.3243C2.22304 26.566 2.17166 26.8229 2.16699 27.0827ZM36.8337 40.0827C36.8337 39.6542 36.9607 39.2352 37.1988 38.8789C37.4369 38.5226 37.7753 38.2449 38.1712 38.0809C38.5671 37.917 39.0027 37.874 39.423 37.9576C39.8433 38.0412 40.2294 38.2476 40.5324 38.5506C40.8354 38.8536 41.0418 39.2397 41.1254 39.66C41.209 40.0803 41.166 40.5159 41.0021 40.9118C40.8381 41.3077 40.5604 41.6461 40.2041 41.8842C39.8478 42.1223 39.4288 42.2493 39.0003 42.2493C38.4257 42.2493 37.8746 42.0211 37.4683 41.6147C37.0619 41.2084 36.8337 40.6573 36.8337 40.0827ZM21.667 11.916C21.667 11.3414 21.8953 10.7903 22.3016 10.384C22.7079 9.97762 23.259 9.74935 23.8337 9.74935H43.3337C43.9083 9.74935 44.4594 9.97762 44.8657 10.384C45.272 10.7903 45.5003 11.3414 45.5003 11.916V35.7493H43.8103C43.2011 35.0791 42.4585 34.5435 41.6302 34.1771C40.8019 33.8106 39.9061 33.6213 39.0003 33.6213C38.0946 33.6213 37.1988 33.8106 36.3705 34.1771C35.5421 34.5435 34.7995 35.0791 34.1903 35.7493H21.667V11.916ZM17.3337 24.916H8.66699L11.267 21.4493C11.4688 21.1803 11.7305 20.9618 12.0314 20.8114C12.3322 20.661 12.664 20.5827 13.0003 20.5827H17.3337V24.916ZM10.8337 40.0827C10.8337 39.6542 10.9607 39.2352 11.1988 38.8789C11.4369 38.5226 11.7753 38.2449 12.1712 38.0809C12.5671 37.917 13.0027 37.874 13.423 37.9576C13.8433 38.0412 14.2294 38.2476 14.5324 38.5506C14.8354 38.8536 15.0418 39.2397 15.1254 39.66C15.209 40.0803 15.1661 40.5159 15.0021 40.9118C14.8381 41.3077 14.5604 41.6461 14.2041 41.8842C13.8478 42.1223 13.4289 42.2493 13.0003 42.2493C12.4257 42.2493 11.8746 42.0211 11.4683 41.6147C11.0619 41.2084 10.8337 40.6573 10.8337 40.0827ZM6.50033 29.2493H17.3337V35.2727C16.055 34.1299 14.3764 33.5387 12.6638 33.628C10.9512 33.7173 9.34326 34.4798 8.19032 35.7493H6.50033V29.2493Z" fill="#2C2B2E"></path>
</svg>
