<svg width="120" height="135" viewBox="0 0 120 135" fill="none" xmlns="http://www.w3.org/2000/svg">
<path d="M94.7923 77.8069C91.8131 77.8069 91.8189 82.4901 91.8189 83.8689V100.132L91.2762 100.156C90.1382 94.9111 85.732 95.5975 80.5497 98.0758C77.3029 99.6204 73.7599 100.412 70.1763 100.394C53.4446 100.394 39.8818 88.0587 39.8818 72.8474C39.8818 57.6361 53.4446 45.3013 70.1763 45.3013C80.22 45.3013 85.6824 50.5758 88.3028 52.4924C88.3028 52.4924 91.5592 55.2856 91.5592 51.9991L92.099 52.0259V62.2242L91.5592 62.1945C90.6838 59.2883 85.4315 47.5032 70.1763 47.5032C57.4802 47.5032 47.4569 58.8515 47.4569 72.8474C47.4569 86.8434 57.4802 98.1887 70.1763 98.1887C73.4561 98.1887 77.8826 97.8381 82.0787 95.6897C84.4802 94.3762 84.7603 93.25 84.7837 91.9128V83.7292C84.7837 82.2018 84.6961 77.8069 81.8103 77.8069L81.7898 77.2572H94.7982L94.7923 77.8069Z" fill="#FDD19C"/>
<path d="M61.6641 34.4924V35.1075C64.8738 35.1075 64.9643 39.9868 64.9701 41.6836V73.8713L39.8843 34.4924H26.374V35.1075C29.6859 35.1075 29.6801 40.3048 29.6743 41.8381V78.2097C29.6743 79.7371 29.6743 84.9343 26.374 84.9343V85.5465H35.3847V84.9343C32.175 84.9343 32.0816 79.9094 32.0816 78.2157V36.9558L64.9789 85.5465H67.3804V41.8381C67.3804 40.3048 67.3804 35.1075 70.6835 35.1075V34.4924H61.6641Z" fill="#FDD19C"/>
<mask id="mask0_661_2745" style="mask-type:luminance" maskUnits="userSpaceOnUse" x="57" y="34" width="21" height="27">
<path d="M77.5408 34.9314H57.2842V60.9026H77.5408V34.9314Z" fill="white"/>
</mask>
<g mask="url(#mask0_661_2745)">
<path d="M94.7923 77.8072C91.8131 77.8072 91.8189 82.4903 91.8189 83.8691V100.132L91.2762 100.156C90.1382 94.9114 85.732 95.5978 80.5497 98.076C77.3029 99.6207 73.7599 100.412 70.1763 100.394C53.4446 100.394 39.8818 88.059 39.8818 72.8477C39.8818 57.6364 53.4446 45.3015 70.1763 45.3015C80.22 45.3015 85.6824 50.576 88.3028 52.4926C88.3028 52.4926 91.5592 55.2859 91.5592 51.9994L92.099 52.0261V62.2244L91.5592 62.1947C90.6838 59.2886 85.4315 47.5034 70.1763 47.5034C57.4802 47.5034 47.4569 58.8517 47.4569 72.8477C47.4569 86.8436 57.4802 98.189 70.1763 98.189C73.4561 98.189 77.8826 97.8383 82.0787 95.6899C84.4802 94.3765 84.7603 93.2503 84.7837 91.9131V83.7295C84.7837 82.2021 84.6961 77.8072 81.8103 77.8072L81.7898 77.2574H94.7982L94.7923 77.8072Z" fill="#FDD19C"/>
</g>
<path d="M17.5919 24.2484C9.75258 32.224 4.23559 42.2548 1.65262 53.2285C-0.930361 64.2022 -0.478389 75.69 2.95844 86.4181C6.39527 97.1462 12.6826 106.695 21.1234 114.007C29.5641 121.318 39.8284 126.106 50.778 127.839V127.174C39.9524 125.445 29.8081 120.698 21.4689 113.459C13.1297 106.22 6.92121 96.7717 3.53128 86.1602C0.141346 75.5486 -0.297649 64.1885 2.26289 53.3385C4.82343 42.4885 10.2835 32.5722 18.0383 24.6882C26.9041 15.6396 38.3657 9.69648 50.7664 7.7177V7.06396C38.1917 9.04978 26.5665 15.0675 17.5802 24.2424L17.5919 24.2484ZM115.292 43.6733C111.317 34.0812 105 25.6832 96.9411 19.2772C88.882 12.8713 79.3483 8.67012 69.2459 7.07288V7.7177C83.2233 9.94951 95.9572 17.1953 105.15 28.1477C114.342 39.1001 119.388 53.0377 119.377 67.4456C119.383 81.8521 114.335 95.7868 105.143 106.738C95.9519 117.689 83.2211 124.937 69.2459 127.174V127.824C78.2526 126.387 86.8198 122.881 94.2979 117.57C101.776 112.26 107.969 105.286 112.406 97.1758C116.844 89.0659 119.41 80.0335 119.91 70.7635C120.41 61.4936 118.83 52.2293 115.292 43.6733Z" fill="#FDD19C"/>
<path d="M60.0062 8.84074C61.3019 8.84074 62.3523 7.77109 62.3523 6.45162C62.3523 5.13214 61.3019 4.0625 60.0062 4.0625C58.7105 4.0625 57.6602 5.13214 57.6602 6.45162C57.6602 7.77109 58.7105 8.84074 60.0062 8.84074Z" fill="#FDD19C"/>
<path d="M60.0062 130.935C61.3019 130.935 62.3523 129.865 62.3523 128.546C62.3523 127.226 61.3019 126.157 60.0062 126.157C58.7105 126.157 57.6602 127.226 57.6602 128.546C57.6602 129.865 58.7105 130.935 60.0062 130.935Z" fill="#FDD19C"/>
</svg>
