<svg xmlns="http://www.w3.org/2000/svg" width="52" height="52" viewBox="0 0 52 52" fill="none">
    <path d="M44.3948 16.2928C44.3825 16.2357 44.3825 16.1766 44.3948 16.1195C44.3843 16.0695 44.3843 16.0178 44.3948 15.9678V15.7728L44.2648 15.4478C44.212 15.3592 44.1463 15.2788 44.0698 15.2095L43.8748 15.0362H43.7665L35.2298 9.64117L27.1698 4.65784C26.9833 4.50992 26.7699 4.39955 26.5414 4.33284H26.3681C26.1745 4.30051 25.9768 4.30051 25.7831 4.33284H25.5664C25.3148 4.3885 25.0735 4.48356 24.8514 4.6145L8.66645 14.6895L8.47145 14.8412L8.27645 15.0145L8.05978 15.1662L7.95145 15.2962L7.82145 15.6212V15.8162V15.9462C7.8004 16.0898 7.8004 16.2358 7.82145 16.3795V35.2945C7.82071 35.6627 7.91383 36.025 8.092 36.3473C8.27018 36.6695 8.52754 36.941 8.83978 37.1362L25.0898 47.1895L25.4148 47.3195H25.5881C25.9547 47.4358 26.3482 47.4358 26.7148 47.3195H26.8881L27.2131 47.1895L43.3331 37.2878C43.6454 37.0927 43.9027 36.8212 44.0809 36.4989C44.2591 36.1767 44.3522 35.8144 44.3514 35.4462V16.5312C44.3514 16.5312 44.3948 16.3795 44.3948 16.2928ZM25.9998 9.0345L29.8564 11.4178L17.7448 18.9145L13.8664 16.5312L25.9998 9.0345ZM23.8331 41.5345L11.9164 34.2545V20.4095L23.8331 27.7762V41.5345ZM25.9998 23.9628L21.8614 21.4712L33.9731 13.9528L38.1331 16.5312L25.9998 23.9628ZM40.0831 34.1895L28.1664 41.5995V27.7762L40.0831 20.4095V34.1895Z" fill="#C2996F"></path>
</svg>
