<svg class="svg-icon" style="width: 1em; height: 1em;vertical-align: middle;fill: #fff;overflow: hidden;" viewBox="0 0 1024 1024" version="1.1" xmlns="http://www.w3.org/2000/svg"><path d="M321.729 285.567c-11.078-10.858-28.895-10.73-39.771 0.348-10.895 11.078-10.73 28.894 0.348 39.789l189.917 186.639 39.423-40.118-189.917-186.658zM741.7 698.286L551.783 511.647l-39.441 40.118 189.936 186.657a28.092 28.092 0 0 0 19.702 8.057c7.288 0 14.557-2.801 20.068-8.404 10.876-11.078 10.729-28.893-0.348-39.789z"  /><path d="M738.422 321.73c10.877-11.078 10.73-28.895-0.348-39.789-11.078-10.84-28.894-10.73-39.771 0.348L511.646 472.225l-39.423 40.118L285.584 702.26c-10.895 11.078-10.729 28.895 0.348 39.789a28.095 28.095 0 0 0 19.703 8.057c7.287 0 14.557-2.802 20.068-8.404l186.639-189.936 39.441-40.118L738.422 321.73z"  /></svg>