<svg width="32" height="32" viewBox="0 0 32 32" fill="none" xmlns="http://www.w3.org/2000/svg">
<circle cx="16" cy="16" r="15.5" fill="white" stroke="#C2996F"/>
<rect x="7.5" y="7.5" width="17" height="17" stroke="#C2996F"/>
<path d="M22.75 9.25V13.75H21.25V11.8075L18.7825 14.2825L17.7175 13.2175L20.1925 10.75H18.25V9.25H22.75ZM9.25 9.25V13.75H10.75V11.8075L13.2175 14.2825L14.2825 13.2175L11.8075 10.75H13.75V9.25H9.25ZM22.75 22.75V18.25H21.25V20.1925L18.7825 17.725L17.725 18.7825L20.1925 21.25H18.25V22.75H22.75ZM13.75 22.75V21.25H11.8075L14.275 18.7825L13.2175 17.7175L10.75 20.1925V18.25H9.25V22.75H13.75Z" fill="#C2996F"/>
</svg>
