<svg width="34" height="34" viewBox="0 0 34 34" fill="none" xmlns="http://www.w3.org/2000/svg">
<g id="Group 427322412">
<circle id="Ellipse 393" cx="17" cy="17" r="16.5" fill="white" stroke="#C2996F"/>
<g id="Group 427322395">
<path id="Vector" d="M16.5773 26.0986C17.6253 26.7865 18.85 27.1827 20.1774 27.1827C20.1777 27.1827 20.178 27.1827 20.1783 27.1827C20.9376 27.1826 21.9306 27.1196 22.9536 26.7761C22.0751 27.1605 21.1311 27.3565 20.1774 27.3514C15.2554 27.3514 11.2656 23.61 11.2656 18.996C11.2656 14.3821 15.2554 10.6406 20.1774 10.6406C22.7953 10.6406 24.3552 11.8967 25.2129 12.5873C25.3232 12.6762 25.4219 12.7556 25.5097 12.8219M16.5773 26.0986C17.6663 26.5809 18.886 26.8514 20.1774 26.8514H20.1801C21.0705 26.8562 21.9524 26.6717 22.7733 26.3092C21.8318 26.6217 20.9079 26.6827 20.1774 26.6827C16.4426 26.6827 13.494 23.2413 13.494 18.996C13.494 14.7507 16.4426 11.3085 20.1774 11.3085C23.7342 11.3085 25.4426 13.5541 26.1265 14.9245V13.9291M16.5773 26.0986C13.7227 24.8342 11.7656 22.1144 11.7656 18.996C11.7656 15.8789 13.7212 13.1599 16.5741 11.8949M16.5773 26.0986C14.407 24.6739 12.994 21.9978 12.994 18.996C12.994 15.9958 14.4056 13.3204 16.5741 11.8949M26.1265 13.9291C26.334 14.2439 26.4988 14.5453 26.6265 14.8119V13.5102C26.6173 13.5171 26.6078 13.5238 26.5981 13.5303C26.4389 13.6381 26.2717 13.6643 26.1265 13.6565M26.1265 13.9291C26.0595 13.8275 25.9881 13.7245 25.9121 13.6209M26.1265 13.9291V13.6565M26.1265 13.6565V13.1551C25.8512 13.1239 25.5097 12.8219 25.5097 12.8219M26.1265 13.6565C26.0468 13.6522 25.9737 13.6377 25.9121 13.6209M25.5097 12.8219L25.3874 12.9841C25.5826 13.1951 25.757 13.4094 25.9121 13.6209M25.5097 12.8219C25.4575 12.8809 25.4136 12.9306 25.3766 12.9724C24.3261 11.8422 22.6752 10.8085 20.1774 10.8085C18.8486 10.8085 17.6228 11.2055 16.5741 11.8949M16.5741 11.8949C17.6639 11.4117 18.8847 11.1406 20.1774 11.1406C22.61 11.1406 24.039 12.2872 24.8965 12.9752C25.005 13.0623 25.1044 13.142 25.1954 13.2111L25.1967 13.2122C25.2064 13.2204 25.2197 13.2315 25.2361 13.2448C25.2687 13.2712 25.3146 13.307 25.3697 13.3462C25.4736 13.4201 25.6359 13.5245 25.8176 13.5907C25.8446 13.6005 25.8764 13.6111 25.9121 13.6209M26.0441 25.8315V26.4922C25.611 25.9593 24.8813 25.9906 24.0192 26.305C24.364 26.0981 24.6123 25.875 24.7695 25.6088C24.7715 25.6054 24.7735 25.602 24.7754 25.5986M26.0441 25.8315C26.1406 25.8921 26.2324 25.9647 26.3181 26.0504C26.4026 26.1349 26.4777 26.2287 26.5441 26.331V22.3391V22.3367C26.5441 22.0453 26.544 21.2788 26.8333 20.8336H26.2712M26.0441 25.8315C25.8167 25.6889 25.563 25.6126 25.3001 25.5876C25.1307 25.5716 24.9551 25.5766 24.7754 25.5986M26.0441 25.8315V22.3391L26.0441 22.3264C26.044 22.1151 26.0439 21.6037 26.1698 21.1335C26.1956 21.0371 26.2285 20.9353 26.2712 20.8336M26.2712 20.8336C26.335 20.682 26.4205 20.5307 26.5372 20.3983C26.5568 20.3761 26.5772 20.3545 26.5983 20.3336H24.4203C24.4347 20.3478 24.4487 20.3623 24.4624 20.3771C24.5893 20.5149 24.6807 20.6746 24.7475 20.8336M26.2712 20.8336H24.7475M24.7475 20.8336H24.1854C24.4625 21.2599 24.4745 21.9807 24.4745 22.2967V24.779C24.468 25.1599 24.395 25.4843 23.8012 25.8523C24.1308 25.7293 24.4594 25.6375 24.7754 25.5986M24.7475 20.8336C24.7835 20.9193 24.8125 21.0048 24.836 21.0866C24.97 21.5524 24.9745 22.0652 24.9745 22.2967V24.779V24.7875L24.9744 24.7875C24.9705 25.0187 24.9454 25.3053 24.7754 25.5986M26.5441 27.2721L26.5429 27.246L26.5441 27.2457V27.2721ZM26.5441 27.2721H26.4187L26.3844 27.2793M26.5441 27.2721L26.3844 27.2793M26.3844 27.2793L26.3841 27.2721H26.3829C26.3834 27.2745 26.3839 27.2769 26.3844 27.2793Z" fill="#C2996F" stroke="#C2996F"/>
<path id="Vector_2" d="M18.8539 22.2526L9.40586 7.86328H10.9865L18.2195 19.5706L18.8539 20.5975V22.2526ZM19.1373 7.86328C19.0782 7.98932 19.0337 8.1181 18.9996 8.24069C18.9973 8.23245 18.995 8.22423 18.9926 8.21601C18.9597 8.10158 18.9174 7.98144 18.8619 7.86328H19.1373ZM8.47912 22.3492C8.53926 22.2209 8.58416 22.0898 8.61843 21.9653C8.61907 21.9676 8.61972 21.9699 8.62037 21.9722C8.65465 22.0945 8.6992 22.2231 8.75839 22.3492H8.47912Z" fill="#C2996F" stroke="#C2996F"/>
<g id="Clip path group">
<mask id="mask0_31_17948" style="mask-type:luminance" maskUnits="userSpaceOnUse" x="16" y="7" width="7" height="9">
<g id="clip-path">
<path id="Vector_3" d="M16.8848 14.8718V7.99414H21.8437V14.8718H16.8848Z" fill="white" stroke="white"/>
</g>
</mask>
<g mask="url(#mask0_31_17948)">
<g id="Group">
<path id="Vector_4" d="M16.5773 26.0986C17.6253 26.7865 18.85 27.1827 20.1774 27.1827C20.1777 27.1827 20.178 27.1827 20.1783 27.1827C20.9376 27.1826 21.9306 27.1196 22.9536 26.7761C22.0751 27.1605 21.1311 27.3565 20.1774 27.3514C15.2554 27.3514 11.2656 23.61 11.2656 18.996C11.2656 14.3821 15.2554 10.6406 20.1774 10.6406C22.7953 10.6406 24.3552 11.8967 25.2129 12.5873C25.3232 12.6762 25.4219 12.7556 25.5097 12.8219M16.5773 26.0986C17.6663 26.5809 18.886 26.8514 20.1774 26.8514H20.1801C21.0705 26.8562 21.9524 26.6717 22.7733 26.3092C21.8318 26.6217 20.9079 26.6827 20.1774 26.6827C16.4426 26.6827 13.494 23.2413 13.494 18.996C13.494 14.7507 16.4426 11.3085 20.1774 11.3085C23.7342 11.3085 25.4426 13.5541 26.1265 14.9245V13.9291M16.5773 26.0986C13.7227 24.8342 11.7656 22.1144 11.7656 18.996C11.7656 15.8789 13.7212 13.1599 16.5741 11.8949M16.5773 26.0986C14.407 24.6739 12.994 21.9978 12.994 18.996C12.994 15.9958 14.4056 13.3204 16.5741 11.8949M26.1265 13.9291C26.334 14.2439 26.4988 14.5453 26.6265 14.8119V13.5102C26.6173 13.5171 26.6078 13.5238 26.5981 13.5303C26.4389 13.6381 26.2717 13.6643 26.1265 13.6565M26.1265 13.9291C26.0595 13.8275 25.9881 13.7245 25.9121 13.6209M26.1265 13.9291V13.6565M26.1265 13.6565V13.1551C25.8512 13.1239 25.5097 12.8219 25.5097 12.8219M26.1265 13.6565C26.0468 13.6522 25.9737 13.6377 25.9121 13.6209M25.5097 12.8219L25.3874 12.9841C25.5826 13.1951 25.757 13.4094 25.9121 13.6209M25.5097 12.8219C25.4575 12.8809 25.4136 12.9306 25.3766 12.9724C24.3261 11.8422 22.6752 10.8085 20.1774 10.8085C18.8486 10.8085 17.6228 11.2055 16.5741 11.8949M16.5741 11.8949C17.6639 11.4117 18.8847 11.1406 20.1774 11.1406C22.61 11.1406 24.039 12.2872 24.8965 12.9752C25.005 13.0623 25.1044 13.142 25.1954 13.2111L25.1967 13.2122C25.2064 13.2204 25.2197 13.2315 25.2361 13.2448C25.2687 13.2712 25.3146 13.307 25.3697 13.3462C25.4736 13.4201 25.6359 13.5245 25.8176 13.5907C25.8446 13.6005 25.8764 13.6111 25.9121 13.6209M26.0441 25.8315V26.4922C25.611 25.9593 24.8813 25.9906 24.0192 26.305C24.364 26.0981 24.6123 25.875 24.7695 25.6088C24.7715 25.6054 24.7735 25.602 24.7754 25.5986M26.0441 25.8315C26.1406 25.8921 26.2324 25.9647 26.3181 26.0504C26.4026 26.1349 26.4777 26.2287 26.5441 26.331V22.3391V22.3367C26.5441 22.0453 26.544 21.2788 26.8333 20.8336H26.2712M26.0441 25.8315C25.8167 25.6889 25.563 25.6126 25.3001 25.5876C25.1307 25.5716 24.9551 25.5766 24.7754 25.5986M26.0441 25.8315V22.3391L26.0441 22.3264C26.044 22.1151 26.0439 21.6037 26.1698 21.1335C26.1956 21.0371 26.2285 20.9353 26.2712 20.8336M26.2712 20.8336C26.335 20.682 26.4205 20.5307 26.5372 20.3983C26.5568 20.3761 26.5772 20.3545 26.5983 20.3336H24.4203C24.4347 20.3478 24.4487 20.3623 24.4624 20.3771C24.5893 20.5149 24.6807 20.6746 24.7475 20.8336M26.2712 20.8336H24.7475M24.7475 20.8336H24.1854C24.4625 21.2599 24.4745 21.9807 24.4745 22.2967V24.779C24.468 25.1599 24.395 25.4843 23.8012 25.8523C24.1308 25.7293 24.4594 25.6375 24.7754 25.5986M24.7475 20.8336C24.7835 20.9193 24.8125 21.0048 24.836 21.0866C24.97 21.5524 24.9745 22.0652 24.9745 22.2967V24.779V24.7875L24.9744 24.7875C24.9705 25.0187 24.9454 25.3053 24.7754 25.5986M26.5441 27.2721L26.5429 27.246L26.5441 27.2457V27.2721ZM26.5441 27.2721H26.4187L26.3844 27.2793M26.5441 27.2721L26.3844 27.2793M26.3844 27.2793L26.3841 27.2721H26.3829C26.3834 27.2745 26.3839 27.2769 26.3844 27.2793Z" fill="#C2996F" stroke="#C2996F"/>
</g>
</g>
</g>
</g>
</g>
</svg>
