<svg width="20" height="20" viewBox="0 0 20 20" fill="none" xmlns="http://www.w3.org/2000/svg">
<g id="lucide:salad">
<g id="Group">
<path id="Vector" d="M5.83333 17.502H14.1667M10 17.502C11.9891 17.502 13.8968 16.7118 15.3033 15.3053C16.7098 13.8987 17.5 11.9911 17.5 10.002H2.5C2.5 11.9911 3.29018 13.8987 4.6967 15.3053C6.10322 16.7118 8.01088 17.502 10 17.502Z" stroke="#74C851" stroke-width="1.66667" stroke-linecap="round" stroke-linejoin="round"/>
<path id="Vector_2" d="M9.48349 10.0015C8.97879 10.0062 8.49098 9.81993 8.11789 9.48002C7.7448 9.1401 7.51402 8.67169 7.47184 8.16874C7.42967 7.66578 7.57921 7.16548 7.89048 6.76817C8.20175 6.37087 8.65172 6.10594 9.15015 6.02652C9.07035 5.67338 9.08791 5.30519 9.20095 4.96125C9.31398 4.6173 9.51827 4.31048 9.792 4.07353C10.0657 3.83657 10.3987 3.67837 10.7553 3.61579C11.1119 3.55321 11.4788 3.5886 11.8168 3.71819C11.9648 3.48516 12.1595 3.2853 12.3886 3.13119C12.6176 2.97708 12.8761 2.87206 13.1477 2.82274C13.4194 2.77343 13.6983 2.78088 13.9669 2.84464C14.2355 2.90839 14.488 3.02706 14.7085 3.19319C15.0931 2.89087 15.5752 2.74003 16.0636 2.76918C16.5519 2.79834 17.0127 3.00548 17.3586 3.35141C17.7045 3.69735 17.9117 4.15808 17.9408 4.64643C17.97 5.13478 17.8191 5.61688 17.5168 6.00152C17.705 6.25146 17.8319 6.54206 17.8873 6.84996C17.9428 7.15786 17.9252 7.47448 17.8361 7.77436C17.7469 8.07424 17.5887 8.34903 17.374 8.57663C17.1594 8.80423 16.8943 8.9783 16.6002 9.08485C16.6762 9.3848 16.6847 9.69788 16.6252 10.0015M10.8335 10.0015L14.1668 6.66819" stroke="#74C851" stroke-width="1.66667" stroke-linecap="round" stroke-linejoin="round"/>
<path id="Vector_3" d="M9.08207 6.04237C8.62498 5.55509 8.0317 5.21682 7.37955 5.07164C6.72741 4.92646 6.04665 4.98111 5.42602 5.22846C4.80538 5.47582 4.27366 5.9044 3.90015 6.45836C3.52665 7.01231 3.32869 7.66594 3.33207 8.33404C3.33207 8.94237 3.49874 9.50904 3.78207 10.0007" stroke="#74C851" stroke-width="1.66667" stroke-linecap="round" stroke-linejoin="round"/>
</g>
</g>
</svg>
