<svg width="20" height="20" viewBox="0 0 20 20" fill="none" xmlns="http://www.w3.org/2000/svg">
<g id="tabler:salt">
<g id="Group">
<path id="Vector" d="M10 10.832V10.8404M8.33333 13.332V13.3404M11.6667 13.332V13.3404M6.25 6.66536H13.75L13.5158 4.79203C13.4655 4.38887 13.2695 4.018 12.9649 3.74913C12.6603 3.48027 12.268 3.33194 11.8617 3.33203H8.13833C7.73189 3.33174 7.33935 3.47998 7.03456 3.74886C6.72977 4.01774 6.53373 4.38873 6.48333 4.79203L6.25 6.66536Z" stroke="#4BA7EA" stroke-width="1.30208" stroke-linecap="round" stroke-linejoin="round"/>
<path id="Vector_2" d="M6.25178 6.66602L4.90845 14.7252C4.86862 14.964 4.8813 15.2086 4.94559 15.442C5.00988 15.6754 5.12424 15.8919 5.28072 16.0767C5.4372 16.2614 5.63204 16.4098 5.85169 16.5116C6.07134 16.6133 6.31053 16.666 6.55261 16.666H13.4509C13.693 16.666 13.9322 16.6133 14.1519 16.5116C14.3715 16.4098 14.5664 16.2614 14.7228 16.0767C14.8793 15.8919 14.9937 15.6754 15.058 15.442C15.1223 15.2086 15.1349 14.964 15.0951 14.7252L13.7518 6.66602" stroke="#4BA7EA" stroke-width="1.30208" stroke-linecap="round" stroke-linejoin="round"/>
</g>
</g>
</svg>
