<svg width="20" height="20" viewBox="0 0 20 20" fill="none" xmlns="http://www.w3.org/2000/svg">
<g id="ri:cake-3-line">
<path id="Vector" d="M12.9164 1.66602C13.3463 1.66597 13.7708 1.76095 14.1597 1.94415C14.5486 2.12736 14.8922 2.39426 15.1659 2.72575C15.4396 3.05725 15.6366 3.44515 15.7428 3.86168C15.8491 4.27822 15.862 4.71309 15.7806 5.13518L15.7681 5.19018C16.493 5.43202 17.1269 5.88951 17.5848 6.50143C18.0426 7.11335 18.3027 7.85051 18.3301 8.61428C18.3576 9.37804 18.1511 10.132 17.7384 10.7752C17.3257 11.4184 16.7263 11.9202 16.0206 12.2135L15.1156 17.636C15.0832 17.8306 14.9829 18.0074 14.8324 18.135C14.682 18.2625 14.4911 18.3326 14.2939 18.3327H5.70555C5.5083 18.3326 5.31747 18.2625 5.16702 18.135C5.01656 18.0074 4.91624 17.8306 4.88389 17.636L4.02639 12.4943C3.44966 12.4616 2.90206 12.2302 2.47666 11.8394C2.05126 11.4486 1.77433 10.9226 1.69292 10.3507C1.61152 9.77877 1.73067 9.19634 2.03013 8.70236C2.32958 8.20839 2.79086 7.83336 3.33555 7.64102L3.33305 7.49935C3.33289 6.65556 3.54627 5.82546 3.95331 5.08634C4.36036 4.34723 4.94784 3.72315 5.66103 3.27223C6.37422 2.8213 7.18993 2.5582 8.03219 2.50743C8.87445 2.45666 9.71586 2.61987 10.4781 2.98185C10.7433 2.57734 11.1051 2.24523 11.5308 2.01551C11.9565 1.78579 12.4327 1.66568 12.9164 1.66602ZM7.49972 12.4993H5.71639L6.41139 16.666H7.49972V12.4993ZM10.8331 12.4993H9.16639V16.666H10.8331V12.4993ZM14.2822 12.4993H12.4997V16.666H13.5872L14.2822 12.4993ZM8.33305 4.16602C6.54805 4.16602 5.09055 5.56935 5.00389 7.30518L4.99972 7.46935L5.00222 7.61102C5.00811 7.93825 4.91753 8.25997 4.74177 8.53605C4.56601 8.81214 4.31286 9.03036 4.01389 9.16352L3.88889 9.21268C3.70385 9.27857 3.548 9.40764 3.44878 9.57715C3.34956 9.74667 3.31335 9.94576 3.34651 10.1394C3.37967 10.333 3.48009 10.5086 3.63007 10.6355C3.78005 10.7623 3.96997 10.8321 4.16639 10.8327H14.5831C14.8911 10.8327 15.1953 10.7644 15.4737 10.6327C15.7522 10.501 15.998 10.3092 16.1934 10.0711C16.3888 9.83303 16.529 9.55457 16.6039 9.25579C16.6788 8.95701 16.6865 8.64534 16.6264 8.34323C16.5664 8.04111 16.4401 7.75607 16.2566 7.50863C16.0732 7.26119 15.8372 7.05751 15.5655 6.91224C15.2939 6.76698 14.9935 6.68375 14.6858 6.66855C14.3782 6.65336 14.071 6.70656 13.7864 6.82435L13.6406 6.89185C13.256 7.08999 12.8095 7.13087 12.3954 7.00584C11.9813 6.88082 11.632 6.59968 11.4214 6.22185L11.3631 6.10768C11.0967 5.52804 10.6697 5.03699 10.1326 4.69282C9.59551 4.34864 8.97095 4.16581 8.33305 4.16602ZM12.9164 3.33268C12.7004 3.33264 12.488 3.38858 12.3001 3.49505C12.1121 3.60152 11.9549 3.75488 11.8439 3.94018C12.2742 4.36383 12.6243 4.86186 12.8772 5.41018C13.2544 5.21639 13.6619 5.0887 14.0822 5.03268C14.1553 4.84334 14.1811 4.63905 14.1576 4.43748C14.134 4.2359 14.0617 4.0431 13.9469 3.87572C13.8321 3.70835 13.6783 3.57144 13.4988 3.47683C13.3192 3.38221 13.1193 3.33274 12.9164 3.33268Z" fill="#C27B6E"/>
</g>
</svg>
